<svg width="8" height="11" viewBox="0 0 8 11" fill="none" xmlns="http://www.w3.org/2000/svg">
<rect x="1.78577" width="4" height="7.01217" rx="2" fill="#00A3FF"/>
<path fill-rule="evenodd" clip-rule="evenodd" d="M0.946055 5.88289C0.821173 5.6366 0.520278 5.53818 0.273987 5.66306C0.0276969 5.78794 -0.0707235 6.08884 0.0541592 6.33513C0.661719 7.53334 1.87788 8.55064 3.2889 8.76334V10.4331C3.2889 10.7093 3.51276 10.9331 3.7889 10.9331C4.06504 10.9331 4.2889 10.7093 4.2889 10.4331V8.77368C5.44391 8.62013 6.58704 7.87749 7.50495 6.36891C7.64849 6.133 7.57362 5.8254 7.33771 5.68186C7.10181 5.53832 6.79421 5.6132 6.65067 5.84911C5.63704 7.51497 4.44678 7.92192 3.45013 7.77632C2.4016 7.62314 1.43239 6.84202 0.946055 5.88289Z" fill="#00A3FF"/>
</svg>
