<svg width="30" height="30" viewBox="0 0 42 42" fill="none" xmlns="http://www.w3.org/2000/svg">
<path d="M1 12.2V37.8C1 38.6 1.47059 39.4 2.17647 40C2.88235 40.6 3.82353 41 4.76471 41H27.8235M29.2353 1V11H41" stroke="#B5BFD6" stroke-width="2" stroke-linecap="round" stroke-linejoin="round"/>
<path d="M30.4117 1H14.1765C13.2353 1 12.2941 1.4 11.5882 2C10.8823 2.6 10.4117 3.4 10.4117 4.2V29.8C10.4117 30.6 10.8823 31.4 11.5882 32C12.2941 32.6 13.2353 33 14.1765 33H37.2353C38.1764 33 39.1176 32.6 39.8235 32C40.5294 31.4 41 30.6 41 29.8V10L30.4117 1Z" stroke="#B5BFD6" stroke-width="2" stroke-linecap="round" stroke-linejoin="round"/>
</svg>
