<svg width="20" height="12" viewBox="0 0 20 12" fill="none" xmlns="http://www.w3.org/2000/svg">
<path d="M13.0001 1.22427L10.0028 3.8839L6.05405 0.379944L4.72192 1.562L10.0028 6.24802L14.3322 2.40633L13.0001 1.22427Z" fill="#F44336"/>
<path d="M15.7119 3.79947L11.4301 0H15.7119V3.79947Z" fill="#F44336"/>
<path d="M19.7559 8.78099L18.6141 7.7678C14.5701 4.26384 4.86463 4.77043 1.39159 7.7678L0.249773 8.78099C-0.0832578 9.0765 -0.0832578 9.49867 0.249773 9.79418L2.53341 11.7784C2.86645 12.0739 3.3422 12.0739 3.67524 11.7784L6.19676 9.62532L6.00645 7.2612C6.81524 6.54352 13.1904 6.54352 13.9992 7.2612L13.8565 9.70975L16.2828 11.7784C16.6159 12.0739 17.0916 12.0739 17.4247 11.7784L19.7083 9.79418C20.0889 9.49867 20.0889 9.03429 19.7559 8.78099Z" fill="#F44336"/>
</svg>
