<svg width="28" height="28" viewBox="0 0 40 40" fill="none" xmlns="http://www.w3.org/2000/svg">
<path d="M20 40L0 30V10L20 0L40 10V30L20 40ZM20 4.20364L4.21053 12.0964V27.9036L20 35.7982L35.7895 27.9036V12.0964L20 4.20182V4.20364ZM20 27.2727C18.0517 27.2731 16.1636 26.69 14.6573 25.6228C13.151 24.5557 12.1198 23.0705 11.7393 21.4202C11.3588 19.77 11.6527 18.057 12.5707 16.5729C13.4888 15.0888 14.9743 13.9256 16.7742 13.2814C18.574 12.6372 20.5768 12.5519 22.4413 13.0401C24.3058 13.5282 25.9166 14.5596 26.9993 15.9585C28.0819 17.3574 28.5695 19.0372 28.3788 20.7117C28.1882 22.3862 27.3311 23.9519 25.9537 25.1418C24.3713 26.5013 22.232 27.267 20 27.2727ZM20 16.3636C19.4471 16.3635 18.8995 16.4575 18.3886 16.6401C17.8777 16.8227 17.4135 17.0905 17.0224 17.4281C16.6313 17.7656 16.3211 18.1664 16.1093 18.6076C15.8976 19.0487 15.7886 19.5216 15.7884 19.9991C15.7883 20.4766 15.8971 20.9495 16.1085 21.3907C16.32 21.832 16.63 22.2329 17.0209 22.5707C17.4118 22.9084 17.8759 23.1764 18.3867 23.3592C18.8975 23.5421 19.445 23.6362 19.9979 23.6364C21.1146 23.6366 22.1857 23.2537 22.9755 22.5719C23.7653 21.8902 24.2092 20.9653 24.2095 20.0009C24.2098 19.0365 23.7664 18.1115 22.977 17.4293C22.1876 16.7472 21.1167 16.3639 20 16.3636Z" fill="#B5BFD6"/>
</svg>
