<svg width="28" height="28" viewBox="0 0 40 40" fill="none" xmlns="http://www.w3.org/2000/svg">
<path fill-rule="evenodd" clip-rule="evenodd" d="M0 8C0 5.87827 0.526784 3.84344 1.46447 2.34315C2.40215 0.842854 3.67392 5.54049e-08 5 5.54049e-08H23.75C24.9627 -0.000228192 26.1342 0.704771 27.0462 1.98371C27.9582 3.26265 28.5486 5.02835 28.7075 6.952L36.4825 1.424C36.8631 1.15269 37.28 1.03785 37.6953 1.08994C38.1107 1.14203 38.5113 1.35938 38.8608 1.72225C39.2103 2.08512 39.4976 2.58198 39.6966 3.1677C39.8955 3.75341 39.9998 4.40938 40 5.076V34.924C39.9996 35.5901 39.8953 36.2455 39.6965 36.8307C39.4977 37.416 39.2107 37.9125 38.8615 38.2753C38.5124 38.638 38.1121 38.8555 37.6971 38.9081C37.2821 38.9606 36.8655 38.8464 36.485 38.576L28.7075 33.048C28.5486 34.9716 27.9582 36.7374 27.0462 38.0163C26.1342 39.2952 24.9627 40.0002 23.75 40H5C3.67392 40 2.40215 39.1571 1.46447 37.6569C0.526784 36.1566 0 34.1217 0 32V8ZM28.75 28.7L37.5 34.924V5.076L28.75 11.3V28.7ZM5 4C4.33696 4 3.70107 4.42143 3.23223 5.17157C2.76339 5.92172 2.5 6.93913 2.5 8V32C2.5 33.0609 2.76339 34.0783 3.23223 34.8284C3.70107 35.5786 4.33696 36 5 36H23.75C24.413 36 25.0489 35.5786 25.5178 34.8284C25.9866 34.0783 26.25 33.0609 26.25 32V8C26.25 6.93913 25.9866 5.92172 25.5178 5.17157C25.0489 4.42143 24.413 4 23.75 4H5Z" fill="#B5BFD6"/>
<circle cx="20.5" cy="10.5" r="3.5" fill="#B5BFD6"/>
</svg>
